<svg fill="none" height="32" viewBox="0 0 31 32" width="31" xmlns="http://www.w3.org/2000/svg">
    <path
        d="M10.0104 2.6665V6.6665H9.04166C8.70583 6.6665 8.38291 6.67984 8.07291 6.73317V2.6665C8.07291 2.11984 8.51208 1.6665 9.04166 1.6665C9.57125 1.6665 10.0104 2.11984 10.0104 2.6665Z"
        fill="#202020" />
    <path
        d="M21.9583 6.6665H9.04167C8.70584 6.6665 8.38292 6.67984 8.07292 6.73317C4.74042 7.13317 2.58334 9.67984 2.58334 13.3332V22.6665C2.58334 26.6665 5.16667 29.3332 9.04167 29.3332H21.9583C25.8333 29.3332 28.4167 26.6665 28.4167 22.6665V13.3332C28.4167 9.33317 25.8333 6.6665 21.9583 6.6665ZM10.1783 21.3332C8.39584 21.3332 6.94917 19.8398 6.94917 17.9998C6.94917 16.1598 8.39584 14.6665 10.1783 14.6665C11.9608 14.6665 13.4075 16.1598 13.4075 17.9998C13.4075 19.8398 11.9608 21.3332 10.1783 21.3332ZM18.5742 21.6665H17.9283C17.3988 21.6665 16.9596 21.2132 16.9596 20.6665C16.9596 20.1198 17.3988 19.6665 17.9283 19.6665H18.5742C19.1038 19.6665 19.5429 20.1198 19.5429 20.6665C19.5429 21.2132 19.1038 21.6665 18.5742 21.6665ZM23.095 21.6665H22.4492C21.9196 21.6665 21.4804 21.2132 21.4804 20.6665C21.4804 20.1198 21.9196 19.6665 22.4492 19.6665H23.095C23.6246 19.6665 24.0638 20.1198 24.0638 20.6665C24.0638 21.2132 23.6246 21.6665 23.095 21.6665ZM23.095 16.3332H17.9283C17.3988 16.3332 16.9596 15.8798 16.9596 15.3332C16.9596 14.7865 17.3988 14.3332 17.9283 14.3332H23.095C23.6246 14.3332 24.0638 14.7865 24.0638 15.3332C24.0638 15.8798 23.6246 16.3332 23.095 16.3332Z"
        fill="#202020" />
</svg>
